HIERARCHY
ROOT Hips
{
	OFFSET 54.717701 -8.483314 83.896896
	CHANNELS 6 Xposition Yposition Zposition Xrotation Yrotation Zrotation
	JOINT spine
	{
		OFFSET 0.000000 -0.342408 5.954376
		CHANNELS 3 Xrotation Yrotation Zrotation
		JOINT spine1
		{
			OFFSET 0.000000 -0.000002 8.856018
			CHANNELS 3 Xrotation Yrotation Zrotation
			JOINT spine2
			{
				OFFSET 0.000000 -0.000001 8.485672
				CHANNELS 3 Xrotation Yrotation Zrotation
				JOINT Neck
				{
					OFFSET 0.000000 -1.038704 21.786301
					CHANNELS 3 Xrotation Yrotation Zrotation
					JOINT Head
					{
						OFFSET 0.000000 -0.000001 6.582199
						CHANNELS 3 Xrotation Yrotation Zrotation
						End Site
						{
							OFFSET 0.000000 5.254357 15.932602
						}
					}
				}
				JOINT RightShoulder
				{
					OFFSET -3.573071 0.497523 9.163864
					CHANNELS 3 Xrotation Yrotation Zrotation
					JOINT RightArm
					{
						OFFSET 0.000000 -0.000002 12.019196
						CHANNELS 3 Xrotation Yrotation Zrotation
						JOINT RightArmRoll
						{
							OFFSET 0.000000 -0.000001 6.067551
							CHANNELS 3 Xrotation Yrotation Zrotation
							JOINT RightForeArm
							{
								OFFSET 0.000000 -0.000003 17.672607
								CHANNELS 3 Xrotation Yrotation Zrotation
								JOINT RightForeArmRoll
								{
									OFFSET 0.000000 -0.000001 6.808716
									CHANNELS 3 Xrotation Yrotation Zrotation
									JOINT RightHand
									{
										OFFSET 0.000000 -0.000002 13.663605
										CHANNELS 3 Xrotation Yrotation Zrotation
										End Site
										{
											OFFSET 0.000000 -0.000001 0.100006
										}
									}
								}
							}
						}
					}
				}
				JOINT LeftShoulder
				{
					OFFSET 3.573071 0.497523 9.163864
					CHANNELS 3 Xrotation Yrotation Zrotation
					JOINT LeftArm
					{
						OFFSET 0.000000 -0.000002 12.019196
						CHANNELS 3 Xrotation Yrotation Zrotation
						JOINT LeftArmRoll
						{
							OFFSET 0.000000 -0.000001 6.067535
							CHANNELS 3 Xrotation Yrotation Zrotation
							JOINT LeftForeArm
							{
								OFFSET 0.000000 -0.000003 17.672592
								CHANNELS 3 Xrotation Yrotation Zrotation
								JOINT LeftForeArmRoll
								{
									OFFSET 0.000000 -0.000001 6.808716
									CHANNELS 3 Xrotation Yrotation Zrotation
									JOINT LeftHand
									{
										OFFSET 0.000000 -0.000002 13.663605
										CHANNELS 3 Xrotation Yrotation Zrotation
										End Site
										{
											OFFSET 0.000000 -0.000001 0.100006
										}
									}
								}
							}
						}
					}
				}
			}
		}
	}
	JOINT RightUpLeg
	{
		OFFSET -5.277740 0.811858 -0.967796
		CHANNELS 3 Xrotation Yrotation Zrotation
		JOINT RightUpLegRoll
		{
			OFFSET 0.000000 -0.000003 16.021400
			CHANNELS 3 Xrotation Yrotation Zrotation
			JOINT RightLeg
			{
				OFFSET 0.000000 0.000003 -19.840103
				CHANNELS 3 Xrotation Yrotation Zrotation
				JOINT RightLegRoll
				{
					OFFSET 0.000000 -0.000003 19.904999
					CHANNELS 3 Xrotation Yrotation Zrotation
					JOINT RightFoot
					{
						OFFSET 0.000000 -0.000002 16.567497
						CHANNELS 3 Xrotation Yrotation Zrotation
						JOINT RightToeBase
						{
							OFFSET 0.000000 -0.000002 13.849602
							CHANNELS 3 Xrotation Yrotation Zrotation
							End Site
							{
								OFFSET 0.005871 0.773116 6.707275
							}
						}
					}
				}
			}
		}
	}
	JOINT LeftUpLeg
	{
		OFFSET 5.277740 0.811858 -0.967796
		CHANNELS 3 Xrotation Yrotation Zrotation
		JOINT LeftUpLegRoll
		{
			OFFSET 0.000000 -0.000003 16.021500
			CHANNELS 3 Xrotation Yrotation Zrotation
			JOINT LeftLeg
			{
				OFFSET 0.000000 -0.000003 19.840004
				CHANNELS 3 Xrotation Yrotation Zrotation
				JOINT LeftLegRoll
				{
					OFFSET 0.000000 -0.000003 20.089005
					CHANNELS 3 Xrotation Yrotation Zrotation
					JOINT LeftFoot
					{
						OFFSET 0.000000 -0.000003 16.383499
						CHANNELS 3 Xrotation Yrotation Zrotation
						JOINT LeftToeBase
						{
							OFFSET 0.000000 -0.000002 13.849594
							CHANNELS 3 Xrotation Yrotation Zrotation
							End Site
							{
								OFFSET -0.026310 0.773116 6.707275
							}
						}
					}
				}
			}
		}
	}
}
MOTION
Frames: 5
Frame Time: 0.041667
52.893703 -1.823143 83.975311 -4.867947 -1.997923 -0.093500 0.195595 0.015722 0.119726 4.393982 0.037910 0.239044 6.039062 0.040833 0.238871 17.890443 7.998658 -3.786804 2.484647 -10.529908 -3.309101 -3.623196 -62.376935 -4.549924 -29.938785 -124.751780 -46.277930 -0.000002 -0.000000 -0.000002 -0.021257 3.636920 -1.990802 -0.000003 0.000004 -3.011589 -5.000168 -7.999938 -0.000074 -12.165337 59.620318 14.358144 -29.632868 129.605257 48.852324 -0.000001 0.000004 -0.000001 -0.025566 -3.640050 1.990767 0.000004 0.000001 3.011601 -5.000168 7.999927 0.000068 -6.142381 -176.447460 4.232984 -179.999991 0.000005 -1.012993 164.352274 -3.231884 -0.944712 -0.000002 0.000000 0.264467 72.047670 6.829091 2.095358 25.456918 -7.358215 -0.000003 -3.067822 -175.611281 3.994867 -0.000005 -0.000005 -1.072010 -11.970525 0.259983 0.429345 0.000004 0.000000 -0.189003 69.967638 -6.871705 -2.104883 25.456972 7.357514 -0.000007 
52.882103 -1.862383 83.991493 -4.824067 -1.986783 -0.084960 0.198199 0.015844 0.119695 4.399191 0.037807 0.238983 6.044272 0.040724 0.238802 17.671492 7.980502 -3.778693 2.499591 -10.541381 -3.313033 -3.677450 -62.388621 -4.613882 -29.962267 -124.769784 -46.312193 -0.000001 0.000000 -0.000000 -0.021255 3.636920 -1.990797 -0.000003 0.000004 -3.011590 -5.000170 -7.999937 -0.000075 -12.168862 59.531997 14.358716 -29.583981 129.690020 48.883230 -0.000001 0.000003 -0.000001 -0.025567 -3.640050 1.990765 0.000002 0.000001 3.011597 -5.000169 7.999926 0.000065 -6.185645 -176.468633 4.213463 -179.999991 0.000005 -1.012994 164.353968 -3.226134 -0.943999 -0.000003 0.000000 0.264462 72.042636 6.829107 2.095368 25.456918 -7.358217 -0.000002 -3.133341 -175.633520 3.972234 -0.000005 -0.000004 -1.070050 -12.002943 0.278072 0.433447 0.000004 0.000001 -0.188288 69.946130 -6.871726 -2.106916 25.456977 7.357514 -0.000007 
52.889103 -1.841806 83.983208 -4.781016 -1.975757 -0.075576 0.201021 0.016089 0.119649 4.404841 0.037937 0.238894 6.049913 0.040847 0.238699 17.450664 7.960369 -3.770654 2.515623 -10.552746 -3.316773 -3.735191 -62.401906 -4.682023 -29.987549 -124.787215 -46.347516 -0.000001 0.000000 -0.000001 -0.021255 3.636920 -1.990801 -0.000003 0.000004 -3.011589 -5.000169 -7.999938 -0.000075 -12.171124 59.440070 14.357609 -29.532273 129.778075 48.914352 -0.000001 0.000004 0.000001 -0.025567 -3.640049 1.990764 0.000003 0.000001 3.011600 -5.000168 7.999927 0.000069 -6.227912 -176.489780 4.194522 -179.999991 0.000005 -1.012994 164.355662 -3.220386 -0.943287 -0.000003 0.000000 0.264453 72.037896 6.829084 2.095454 25.456919 -7.358217 -0.000003 -3.197954 -175.655745 3.948918 -0.000005 -0.000005 -1.068050 -12.035166 0.296966 0.437684 0.000005 0.000001 -0.187534 69.923864 -6.871708 -2.108991 25.456972 7.357516 -0.000007 
52.884903 -1.856424 83.987190 -4.738563 -1.964797 -0.065605 0.203992 0.016421 0.119591 4.410781 0.038229 0.238783 6.055852 0.041133 0.238573 17.228401 7.938862 -3.762740 2.532407 -10.563901 -3.320389 -3.795397 -62.416290 -4.753129 -30.014638 -124.804099 -46.384289 -0.000001 -0.000000 -0.000001 -0.021254 3.636920 -1.990802 -0.000003 0.000004 -3.011589 -5.000168 -7.999937 -0.000074 -12.172488 59.345588 14.355292 -29.479045 129.867783 48.946211 -0.000000 0.000004 -0.000000 -0.025567 -3.640050 1.990764 0.000003 0.000001 3.011601 -5.000168 7.999927 0.000070 -6.269515 -176.510939 4.175995 -179.999991 0.000005 -1.012994 164.357246 -3.214634 -0.942580 -0.000003 0.000000 0.264442 72.033388 6.829079 2.095329 25.456916 -7.358217 -0.000002 -3.261933 -175.678995 3.925186 -0.000005 -0.000004 -1.066040 -12.067187 0.316423 0.442023 0.000005 0.000001 -0.186752 69.901078 -6.871697 -2.111100 25.456971 7.357514 -0.000007 
52.885300 -1.852844 83.981514 -4.696435 -1.953883 -0.055307 0.207053 0.016800 0.119527 4.416902 0.038615 0.238661 6.061972 0.041512 0.238434 17.005322 7.916605 -3.754999 2.549623 -10.574952 -3.323933 -3.857013 -62.431221 -4.825939 -30.042037 -124.821065 -46.421008 -0.000001 0.000000 0.000001 -0.021255 3.636920 -1.990799 -0.000003 0.000004 -3.011590 -5.000168 -7.999937 -0.000072 -12.173375 59.249644 14.352309 -29.424520 129.959129 48.977893 -0.000001 0.000004 0.000000 -0.025567 -3.640049 1.990765 0.000003 0.000001 3.011599 -5.000169 7.999926 0.000069 -6.310722 -176.531089 4.157611 -179.999991 0.000005 -1.012993 164.358831 -3.209843 -0.942143 -0.000003 0.000000 0.264431 72.028887 6.829074 2.095305 25.456918 -7.358218 -0.000003 -3.325537 -175.702218 3.901225 -0.000006 -0.000004 -1.064020 -12.099211 0.336199 0.446431 0.000004 0.000001 -0.185955 69.877978 -6.871695 -2.113230 25.456974 7.357514 -0.000007 
